<svg width="600" height="400" xmlns="http://www.w3.org/2000/svg">
  <!-- Background -->
  <rect width="100%" height="100%" fill="#E8EAF0"/>
  
  <!-- Sky -->
  <rect width="100%" height="150" fill="#A5CAE5"/>
  
  <!-- Dam Square -->
  <rect y="150" width="600" height="250" fill="#C7C7C7"/>
  
  <!-- Royal Palace -->
  <rect x="50" y="50" width="300" height="100" fill="#E8DCC5" stroke="#C7BCA7" stroke-width="2"/>
  
  <!-- Palace windows -->
  <rect x="70" y="70" width="20" height="40" fill="#D5E7F2" stroke="#E8DCC5" stroke-width="1"/>
  <rect x="110" y="70" width="20" height="40" fill="#D5E7F2" stroke="#E8DCC5" stroke-width="1"/>
  <rect x="150" y="70" width="20" height="40" fill="#D5E7F2" stroke="#E8DCC5" stroke-width="1"/>
  <rect x="190" y="70" width="20" height="40" fill="#D5E7F2" stroke="#E8DCC5" stroke-width="1"/>
  <rect x="230" y="70" width="20" height="40" fill="#D5E7F2" stroke="#E8DCC5" stroke-width="1"/>
  <rect x="270" y="70" width="20" height="40" fill="#D5E7F2" stroke="#E8DCC5" stroke-width="1"/>
  
  <!-- Palace dome -->
  <path d="M180,50 C180,30 220,30 220,50" fill="#4E7A9B" stroke="#3C5F7A" stroke-width="2"/>
  
  <!-- New Church -->
  <rect x="400" y="70" width="150" height="80" fill="#D3C9B8" stroke="#B0A898" stroke-width="2"/>
  <path d="M475,70 L475,30 L490,10 L505,30 L505,70" fill="#B0A898" stroke="#8A8270" stroke-width="1"/>
  
  <!-- Church windows -->
  <path d="M420,90 L420,130 L435,110 L450,130 L450,90" fill="#8B9DAF" stroke="#D3C9B8" stroke-width="1"/>
  <path d="M500,90 L500,130 L515,110 L530,130 L530,90" fill="#8B9DAF" stroke="#D3C9B8" stroke-width="1"/>
  
  <!-- National Monument -->
  <rect x="300" y="150" width="20" height="150" fill="#F5F5F5" stroke="#E0E0E0" stroke-width="2"/>
  <path d="M290,150 L330,150 L320,120 L300,120 Z" fill="#F5F5F5" stroke="#E0E0E0" stroke-width="1"/>
  
  <!-- People in the square -->
  <circle cx="150" cy="250" r="8" fill="#4E5975"/>
  <rect x="146" y="258" width="8" height="15" fill="#4E5975"/>
  
  <circle cx="190" cy="280" r="8" fill="#774C43"/>
  <rect x="186" y="288" width="8" height="15" fill="#774C43"/>
  
  <circle cx="240" cy="270" r="8" fill="#546954"/>
  <rect x="236" y="278" width="8" height="15" fill="#546954"/>
  
  <circle cx="350" cy="240" r="8" fill="#774C76"/>
  <rect x="346" y="248" width="8" height="15" fill="#774C76"/>
  
  <circle cx="400" cy="260" r="8" fill="#6B4C36"/>
  <rect x="396" y="268" width="8" height="15" fill="#6B4C36"/>
  
  <circle cx="450" cy="240" r="8" fill="#4C6176"/>
  <rect x="446" y="248" width="8" height="15" fill="#4C6176"/>
  
  <!-- Pigeons -->
  <circle cx="330" cy="200" r="3" fill="#A5A5A5"/>
  <circle cx="340" cy="195" r="3" fill="#A5A5A5"/>
  <circle cx="325" cy="190" r="3" fill="#A5A5A5"/>
  <circle cx="350" cy="200" r="3" fill="#A5A5A5"/>
  <circle cx="270" cy="200" r="3" fill="#A5A5A5"/>
  <circle cx="260" cy="205" r="3" fill="#A5A5A5"/>
  <circle cx="280" cy="210" r="3" fill="#A5A5A5"/>
  
  <!-- Bicycles -->
  <circle cx="120" cy="300" r="8" fill="none" stroke="#333" stroke-width="1"/>
  <circle cx="150" cy="300" r="8" fill="none" stroke="#333" stroke-width="1"/>
  <path d="M120,300 L150,300 M120,300 L130,280 L150,300" stroke="#333" stroke-width="1" fill="none"/>
  
  <circle cx="420" cy="310" r="8" fill="none" stroke="#333" stroke-width="1"/>
  <circle cx="450" cy="310" r="8" fill="none" stroke="#333" stroke-width="1"/>
  <path d="M420,310 L450,310 M420,310 L430,290 L450,310" stroke="#333" stroke-width="1" fill="none"/>
  
  <!-- Title -->
  <text x="300" y="380" font-family="Arial" font-size="20" text-anchor="middle" fill="#333333" font-weight="bold">
    Dam Square
  </text>
</svg>