<svg width="600" height="400" xmlns="http://www.w3.org/2000/svg">
  <!-- Background -->
  <rect width="100%" height="100%" fill="#E8EAF0"/>
  
  <!-- Sky -->
  <rect width="100%" height="150" fill="#A5CAE5"/>
  
  <!-- Canal and street -->
  <rect y="150" width="400" height="80" fill="#4A7BA3"/> <!-- Canal -->
  <rect x="400" y="150" width="200" height="80" fill="#8E8E8E"/> <!-- Street -->
  <rect y="230" width="600" height="170" fill="#8E8E8E"/> <!-- Main street -->
  
  <!-- Canal bank -->
  <rect y="140" width="400" height="10" fill="#8C7F6D"/>
  <rect x="400" y="140" width="200" height="10" fill="#8C7F6D"/>
  
  <!-- Jordaan district houses - Main row -->
  <rect x="50" y="50" width="60" height="90" fill="#D18B62" stroke="#AF7451" stroke-width="1"/>
  <rect x="110" y="50" width="60" height="90" fill="#E8DCC5" stroke="#C7BCA7" stroke-width="1"/>
  <rect x="170" y="50" width="60" height="90" fill="#AE5D5D" stroke="#8E4C4C" stroke-width="1"/>
  <rect x="230" y="50" width="60" height="90" fill="#D8AF87" stroke="#B69472" stroke-width="1"/>
  <rect x="290" y="50" width="60" height="90" fill="#C18C60" stroke="#9F7350" stroke-width="1"/>
  <rect x="350" y="50" width="60" height="90" fill="#D8C1A7" stroke="#B6A389" stroke-width="1"/>
  <rect x="410" y="50" width="60" height="90" fill="#7C9EA7" stroke="#678189" stroke-width="1"/>
  <rect x="470" y="50" width="60" height="90" fill="#E2CDC7" stroke="#BFAEA9" stroke-width="1"/>
  
  <!-- Jordaan district houses - House tops -->
  <path d="M50,50 L110,50 L80,30 Z" fill="#8B5D3A" stroke="#704A2E" stroke-width="1"/>
  <path d="M110,50 L170,50 L140,25 Z" fill="#A3826A" stroke="#816555" stroke-width="1"/>
  <path d="M170,50 L230,50 L200,30 Z" fill="#703B3B" stroke="#5A2F2F" stroke-width="1"/>
  <path d="M230,50 L290,50 L260,20 Z" fill="#A67F58" stroke="#876645" stroke-width="1"/>
  <path d="M290,50 L350,50 L320,30 Z" fill="#8B5D3A" stroke="#704A2E" stroke-width="1"/>
  <path d="M350,50 L410,50 L380,25 Z" fill="#A3826A" stroke="#816555" stroke-width="1"/>
  <path d="M410,50 L470,50 L440,30 Z" fill="#51696E" stroke="#415458" stroke-width="1"/>
  <path d="M470,50 L530,50 L500,20 Z" fill="#B39F9A" stroke="#8F7D79" stroke-width="1"/>
  
  <!-- Windows and doors -->
  <rect x="65" y="70" width="15" height="25" fill="#D5E7F2" stroke="#D18B62" stroke-width="1"/>
  <rect x="85" y="70" width="15" height="25" fill="#D5E7F2" stroke="#D18B62" stroke-width="1"/>
  <rect x="65" y="105" width="30" height="35" fill="#6D4C36" stroke="#5A3F2D" stroke-width="1"/> <!-- Door -->
  
  <rect x="125" y="70" width="15" height="25" fill="#D5E7F2" stroke="#E8DCC5" stroke-width="1"/>
  <rect x="145" y="70" width="15" height="25" fill="#D5E7F2" stroke="#E8DCC5" stroke-width="1"/>
  <rect x="125" y="105" width="30" height="35" fill="#6D4C36" stroke="#5A3F2D" stroke-width="1"/> <!-- Door -->
  
  <rect x="185" y="70" width="15" height="25" fill="#D5E7F2" stroke="#AE5D5D" stroke-width="1"/>
  <rect x="205" y="70" width="15" height="25" fill="#D5E7F2" stroke="#AE5D5D" stroke-width="1"/>
  <rect x="185" y="105" width="30" height="35" fill="#6D4C36" stroke="#5A3F2D" stroke-width="1"/> <!-- Door -->
  
  <rect x="245" y="70" width="15" height="25" fill="#D5E7F2" stroke="#D8AF87" stroke-width="1"/>
  <rect x="265" y="70" width="15" height="25" fill="#D5E7F2" stroke="#D8AF87" stroke-width="1"/>
  <rect x="245" y="105" width="30" height="35" fill="#6D4C36" stroke="#5A3F2D" stroke-width="1"/> <!-- Door -->
  
  <rect x="305" y="70" width="15" height="25" fill="#D5E7F2" stroke="#C18C60" stroke-width="1"/>
  <rect x="325" y="70" width="15" height="25" fill="#D5E7F2" stroke="#C18C60" stroke-width="1"/>
  <rect x="305" y="105" width="30" height="35" fill="#6D4C36" stroke="#5A3F2D" stroke-width="1"/> <!-- Door -->
  
  <rect x="365" y="70" width="15" height="25" fill="#D5E7F2" stroke="#D8C1A7" stroke-width="1"/>
  <rect x="385" y="70" width="15" height="25" fill="#D5E7F2" stroke="#D8C1A7" stroke-width="1"/>
  <rect x="365" y="105" width="30" height="35" fill="#6D4C36" stroke="#5A3F2D" stroke-width="1"/> <!-- Door -->
  
  <rect x="425" y="70" width="15" height="25" fill="#D5E7F2" stroke="#7C9EA7" stroke-width="1"/>
  <rect x="445" y="70" width="15" height="25" fill="#D5E7F2" stroke="#7C9EA7" stroke-width="1"/>
  <rect x="425" y="105" width="30" height="35" fill="#6D4C36" stroke="#5A3F2D" stroke-width="1"/> <!-- Door -->
  
  <rect x="485" y="70" width="15" height="25" fill="#D5E7F2" stroke="#E2CDC7" stroke-width="1"/>
  <rect x="505" y="70" width="15" height="25" fill="#D5E7F2" stroke="#E2CDC7" stroke-width="1"/>
  <rect x="485" y="105" width="30" height="35" fill="#6D4C36" stroke="#5A3F2D" stroke-width="1"/> <!-- Door -->
  
  <!-- Hofje (inner courtyard) hint -->
  <rect x="120" y="270" width="160" height="100" fill="#7FA06A" stroke="#5D7A4E" stroke-width="2"/> <!-- Garden -->
  <path d="M120,270 L280,270 L280,370 L120,370 Z" fill="none" stroke="#8C7F6D" stroke-width="3"/> <!-- Stone border -->
  <rect x="150" y="320" width="20" height="50" fill="#6D4C36" stroke="#5A3F2D" stroke-width="1"/> <!-- Gate -->
  
  <!-- Garden elements -->
  <circle cx="200" cy="300" r="10" fill="#5D8449" stroke="#496839" stroke-width="1"/> <!-- Bush -->
  <circle cx="230" cy="320" r="10" fill="#5D8449" stroke="#496839" stroke-width="1"/> <!-- Bush -->
  <circle cx="170" cy="320" r="10" fill="#5D8449" stroke="#496839" stroke-width="1"/> <!-- Bush -->
  <circle cx="200" cy="340" r="10" fill="#5D8449" stroke="#496839" stroke-width="1"/> <!-- Bush -->
  
  <!-- Art gallery -->
  <rect x="350" y="270" width="100" height="80" fill="#F2EFE9" stroke="#D1CFC9" stroke-width="2"/>
  <rect x="360" y="280" width="80" height="50" fill="#E2DFD9" stroke="#F2EFE9" stroke-width="1"/> <!-- Window display -->
  <text x="400" y="310" font-family="Arial" font-size="10" text-anchor="middle" fill="#333333">ART GALLERY</text>
  
  <!-- Café -->
  <rect x="470" y="270" width="80" height="80" fill="#D8C9B0" stroke="#B7AA94" stroke-width="2"/>
  <rect x="480" y="280" width="60" height="40" fill="#F0E6D7" stroke="#D8C9B0" stroke-width="1"/> <!-- Window -->
  <text x="510" y="310" font-family="Arial" font-size="10" text-anchor="middle" fill="#333333">CAFÉ</text>
  
  <!-- Canal boats -->
  <rect x="80" y="180" width="60" height="20" rx="5" ry="5" fill="#3D5A45" stroke="#2E4535" stroke-width="1"/>
  <rect x="85" y="170" width="50" height="10" rx="5" ry="5" fill="#3D5A45" stroke="#2E4535" stroke-width="1"/>
  
  <rect x="230" y="190" width="70" height="25" rx="5" ry="5" fill="#774C43" stroke="#5A3A33" stroke-width="1"/>
  <rect x="240" y="175" width="50" height="15" rx="5" ry="5" fill="#774C43" stroke="#5A3A33" stroke-width="1"/>
  
  <!-- People in the district -->
  <circle cx="140" cy="200" r="6" fill="#4E5975"/>
  <rect x="137" y="206" width="6" height="12" fill="#4E5975"/>
  
  <circle cx="200" cy="250" r="6" fill="#774C43"/>
  <rect x="197" y="256" width="6" height="12" fill="#774C43"/>
  
  <circle cx="300" cy="300" r="6" fill="#546954"/>
  <rect x="297" y="306" width="6" height="12" fill="#546954"/>
  
  <circle cx="380" cy="350" r="6" fill="#774C76"/>
  <rect x="377" y="356" width="6" height="12" fill="#774C76"/>
  
  <circle cx="450" cy="330" r="6" fill="#6B4C36"/>
  <rect x="447" y="336" width="6" height="12" fill="#6B4C36"/>
  
  <!-- Bicycles -->
  <circle cx="50" cy="330" r="5" fill="none" stroke="#333" stroke-width="1"/>
  <circle cx="70" cy="330" r="5" fill="none" stroke="#333" stroke-width="1"/>
  <path d="M50,330 L70,330 M50,330 L60,315 L70,330" stroke="#333" stroke-width="1" fill="none"/>
  
  <circle cx="530" cy="350" r="5" fill="none" stroke="#333" stroke-width="1"/>
  <circle cx="550" cy="350" r="5" fill="none" stroke="#333" stroke-width="1"/>
  <path d="M530,350 L550,350 M530,350 L540,335 L550,350" stroke="#333" stroke-width="1" fill="none"/>
  
  <!-- Title -->
  <text x="300" y="380" font-family="Arial" font-size="20" text-anchor="middle" fill="#333333" font-weight="bold">
    Jordaan District
  </text>
</svg>